<svg fill="#fff" width="800px" height="800px" viewBox="-3.2 -3.2 38.40 38.40" version="1.1" xmlns="http://www.w3.org/2000/svg" stroke="#fff">

<g id="SVGRepo_bgCarrier" stroke-width="0">

<path transform="translate(-3.2, -3.2), scale(2.4)" fill="#272727" d="M9.166.33a2.25 2.25 0 00-2.332 0l-5.25 3.182A2.25 2.25 0 00.5 5.436v5.128a2.25 2.25 0 001.084 1.924l5.25 3.182a2.25 2.25 0 002.332 0l5.25-3.182a2.25 2.25 0 001.084-1.924V5.436a2.25 2.25 0 00-1.084-1.924L9.166.33z" strokewidth="0"/>

</g>

<g id="SVGRepo_tracerCarrier" stroke-linecap="round" stroke-linejoin="round"/>

<g id="SVGRepo_iconCarrier"> <title>i</title> <path d="M15.553 3.993h0.928c0.442 0 0.8 0.358 0.8 0.8v0 22.4c0 0.442-0.359 0.801-0.801 0.801v0h-0.927c-0.442 0-0.8-0.358-0.8-0.8v0-22.401c0-0.442 0.358-0.8 0.8-0.8v0z"/> </g>

</svg>